<svg width="16" height="16" viewBox="0 0 16 16" fill="none" xmlns="http://www.w3.org/2000/svg">
<path d="M15.9735 4.99772C15.7399 2.42711 13.9204 0.562075 11.6434 0.562075C10.1264 0.562075 8.73735 1.37843 7.95577 2.68681C7.18126 1.36151 5.84919 0.561768 4.35649 0.561768C2.07974 0.561768 0.259942 2.4268 0.0266979 4.99741C0.00823534 5.11095 -0.0674613 5.70853 0.162706 6.68304C0.494417 8.08866 1.26062 9.3672 2.37791 10.3796L7.95208 15.438L13.6219 10.3799C14.7392 9.3672 15.5054 8.08897 15.8371 6.68304C16.0673 5.70883 15.9916 5.11126 15.9735 4.99772ZM15.238 6.54211C14.9353 7.82588 14.2334 8.99548 13.2102 9.92231L7.95577 14.6103L2.79147 9.92354C1.76649 8.99487 1.06491 7.82557 0.761817 6.5418C0.543959 5.6196 0.633502 5.09864 0.63381 5.09526L0.638426 5.06418C0.838437 2.81205 2.40191 1.17719 4.35649 1.17719C5.79872 1.17719 7.06834 2.06339 7.67083 3.48963L7.95423 4.16136L8.23763 3.48963C8.83059 2.08524 10.1673 1.1775 11.6437 1.1775C13.5979 1.1775 15.1617 2.81236 15.3657 5.09372C15.3664 5.09864 15.4559 5.61991 15.238 6.54211Z" fill="black"/>
</svg>
