<svg width="26" height="26" viewBox="0 0 26 26" fill="none" xmlns="http://www.w3.org/2000/svg">
<path d="M7.5835 11.9166H9.75016V14.0833H7.5835V11.9166ZM7.5835 16.25H9.75016V18.4166H7.5835V16.25ZM11.9168 11.9166H14.0835V14.0833H11.9168V11.9166ZM11.9168 16.25H14.0835V18.4166H11.9168V16.25ZM16.2502 11.9166H18.4168V14.0833H16.2502V11.9166ZM16.2502 16.25H18.4168V18.4166H16.2502V16.25Z" fill="#BD58BD"/>
<path d="M5.41667 23.8334H20.5833C21.7783 23.8334 22.75 22.8617 22.75 21.6667V6.50008C22.75 5.30516 21.7783 4.33341 20.5833 4.33341H18.4167V2.16675H16.25V4.33341H9.75V2.16675H7.58333V4.33341H5.41667C4.22175 4.33341 3.25 5.30516 3.25 6.50008V21.6667C3.25 22.8617 4.22175 23.8334 5.41667 23.8334ZM20.5833 8.66675L20.5844 21.6667H5.41667V8.66675H20.5833Z" fill="#BD58BD"/>
</svg>
