<svg width="20" height="20" viewBox="0 0 20 20" fill="none" xmlns="http://www.w3.org/2000/svg">
<path fill-rule="evenodd" clip-rule="evenodd" d="M5.9375 2.125C6.08668 2.125 6.22976 2.18426 6.33525 2.28975C6.44074 2.39524 6.5 2.53832 6.5 2.6875V17.3125C6.5 17.4617 6.44074 17.6048 6.33525 17.7102C6.22976 17.8157 6.08668 17.875 5.9375 17.875C5.78832 17.875 5.64524 17.8157 5.53975 17.7102C5.43426 17.6048 5.375 17.4617 5.375 17.3125V2.6875C5.375 2.53832 5.43426 2.39524 5.53975 2.28975C5.64524 2.18426 5.78832 2.125 5.9375 2.125Z" fill="black"/>
<path fill-rule="evenodd" clip-rule="evenodd" d="M6.23219 3.87775C7.32682 3.14763 8.01644 2.6875 9.31244 2.6875C10.0471 2.6875 10.5938 3.05313 10.9943 3.31975L11.0303 3.3445C11.4702 3.637 11.7571 3.8125 12.1249 3.8125C12.3139 3.8125 12.5254 3.76525 12.7853 3.67075C13.011 3.58508 13.2335 3.49127 13.4524 3.3895C13.5177 3.35913 13.5841 3.32987 13.6549 3.2995C14.2962 3.01262 15.0927 2.6875 16.0624 2.6875C16.2116 2.6875 16.3547 2.74676 16.4602 2.85225C16.5657 2.95774 16.6249 3.10082 16.6249 3.25V10C16.6249 10.1492 16.5657 10.2923 16.4602 10.3977C16.3547 10.5032 16.2116 10.5625 16.0624 10.5625C15.3447 10.5625 14.7349 10.7987 14.1117 11.0766L13.9328 11.1554C13.6853 11.2679 13.4232 11.386 13.1701 11.4783C12.8366 11.6086 12.4829 11.6795 12.1249 11.6875C11.3903 11.6875 10.8436 11.3219 10.4431 11.0552L10.4071 11.0305C9.96719 10.738 9.68032 10.5625 9.31244 10.5625C8.37532 10.5625 7.94219 10.8393 6.81157 11.593C6.74819 11.631 6.67794 11.6562 6.60483 11.6671C6.53171 11.678 6.45717 11.6744 6.38545 11.6565C6.31374 11.6386 6.24625 11.6067 6.18685 11.5627C6.12745 11.5187 6.0773 11.4634 6.03926 11.4001C6.00121 11.3367 5.97603 11.2664 5.96514 11.1933C5.95424 11.1202 5.95786 11.0457 5.97577 10.9739C5.99369 10.9022 6.02556 10.8347 6.06955 10.7753C6.11355 10.7159 6.16881 10.6658 6.23219 10.6277C7.32682 9.89762 8.01644 9.4375 9.31244 9.4375C10.0471 9.4375 10.5938 9.80313 10.9943 10.0698L11.0303 10.0945C11.4702 10.387 11.7571 10.5625 12.1249 10.5625C12.3139 10.5625 12.5254 10.5152 12.7853 10.4207C12.9957 10.3442 13.2083 10.2486 13.4524 10.1395C13.5177 10.1091 13.5841 10.0799 13.6549 10.0495C14.1679 9.82 14.7799 9.56575 15.4999 9.4735V3.86087C15.0128 3.94412 14.5662 4.12413 14.1117 4.32663L13.9328 4.40537C13.6853 4.51787 13.4232 4.636 13.1701 4.72825C12.8366 4.85863 12.4829 4.92945 12.1249 4.9375C11.3903 4.9375 10.8436 4.57187 10.4431 4.30525L10.4071 4.2805C9.96719 3.988 9.68032 3.8125 9.31244 3.8125C8.37532 3.8125 7.94219 4.08925 6.81157 4.843C6.68745 4.92049 6.53801 4.94657 6.39498 4.91569C6.25194 4.88481 6.12657 4.79941 6.04547 4.67762C5.96437 4.55582 5.93393 4.40721 5.9606 4.26334C5.98727 4.11946 6.06895 3.99164 6.18832 3.907L6.23332 3.87775H6.23219Z" fill="black"/>
</svg>
