<svg width="24" height="23" viewBox="0 0 24 23" fill="none" xmlns="http://www.w3.org/2000/svg">
<path d="M12.5563 3.21807L14.8799 1L23 8.73887L20.6636 10.9569C19.9945 10.5444 19.1977 10.363 18.4056 10.4428C17.6135 10.5226 16.8739 10.8589 16.3099 11.3957L15.3523 12.3097C14.1777 13.4431 14.0245 15.1737 14.9055 16.4656L12.569 18.6836L9.49209 15.7465L5.91722 19.1467C5.38099 19.6586 1.60184 22.4495 1.06561 21.9376C0.529381 21.4257 3.44035 17.8061 3.97658 17.2943L7.53868 13.8941L4.46174 10.9448L6.79817 8.72669C8.13875 9.5676 9.96449 9.42136 11.1391 8.28795L12.0966 7.37391C13.284 6.25268 13.4372 4.50991 12.5563 3.21807Z" stroke="#BD58BD" stroke-width="2" stroke-linecap="round" stroke-linejoin="round"/>
</svg>
