<svg width="24" height="24" viewBox="0 0 24 24" fill="none" xmlns="http://www.w3.org/2000/svg">
<path d="M12.5563 4.21807L14.8799 2L23 9.73887L20.6636 11.9569C19.9945 11.5444 19.1977 11.363 18.4056 11.4428C17.6135 11.5226 16.8739 11.8589 16.3099 12.3957L15.3523 13.3097C14.1777 14.4431 14.0245 16.1737 14.9055 17.4656L12.569 19.6836L9.49209 16.7465L5.91722 20.1467C5.38099 20.6586 1.60184 23.4495 1.06561 22.9376C0.529381 22.4257 3.44035 18.8061 3.97658 18.2943L7.53868 14.8941L4.46174 11.9448L6.79817 9.72669C8.13875 10.5676 9.96449 10.4214 11.1391 9.28795L12.0966 8.37391C13.284 7.25268 13.4372 5.50991 12.5563 4.21807Z" stroke="black" stroke-width="2" stroke-linecap="round" stroke-linejoin="round"/>
</svg>
