<svg width="20" height="20" viewBox="0 0 20 20" fill="none" xmlns="http://www.w3.org/2000/svg">
<path d="M6.875 6.975C7.01424 6.975 7.14777 7.03031 7.24623 7.12877C7.34469 7.22723 7.4 7.36076 7.4 7.5V15C7.4 15.1392 7.34469 15.2728 7.24623 15.3712C7.14777 15.4697 7.01424 15.525 6.875 15.525C6.73576 15.525 6.60223 15.4697 6.50377 15.3712C6.40531 15.2728 6.35 15.1392 6.35 15V7.5C6.35 7.36076 6.40531 7.22723 6.50377 7.12877C6.60223 7.03031 6.73576 6.975 6.875 6.975ZM10 6.975C10.1392 6.975 10.2728 7.03031 10.3712 7.12877C10.4697 7.22723 10.525 7.36076 10.525 7.5V15C10.525 15.1392 10.4697 15.2728 10.3712 15.3712C10.2728 15.4697 10.1392 15.525 10 15.525C9.86076 15.525 9.72723 15.4697 9.62877 15.3712C9.53031 15.2728 9.475 15.1392 9.475 15V7.5C9.475 7.36076 9.53031 7.22723 9.62877 7.12877C9.72723 7.03031 9.86076 6.975 10 6.975ZM13.4962 7.12877C13.5947 7.22723 13.65 7.36076 13.65 7.5V15C13.65 15.1392 13.5947 15.2728 13.4962 15.3712C13.3978 15.4697 13.2642 15.525 13.125 15.525C12.9858 15.525 12.8522 15.4697 12.7538 15.3712C12.6553 15.2728 12.6 15.1392 12.6 15V7.5C12.6 7.36076 12.6553 7.22723 12.7538 7.12877C12.8522 7.03031 12.9858 6.975 13.125 6.975C13.2642 6.975 13.3978 7.03031 13.4962 7.12877Z" fill="black" stroke="white" stroke-width="0.2"/>
<path d="M16.25 4.9H16.15V5V16.25C16.15 16.8865 15.8971 17.497 15.4471 17.9471C14.997 18.3971 14.3865 18.65 13.75 18.65H6.25C5.61348 18.65 5.00303 18.3971 4.55294 17.9471C4.10286 17.497 3.85 16.8865 3.85 16.25V5V4.9H3.75H3.125C2.82 4.9 2.52749 4.77884 2.31183 4.56317C2.09616 4.34751 1.975 4.055 1.975 3.75V2.5C1.975 2.195 2.09616 1.90249 2.31183 1.68683C2.52749 1.47116 2.82 1.35 3.125 1.35H7.5H7.6V1.25C7.6 0.945001 7.72116 0.652494 7.93683 0.436827C8.15249 0.22116 8.445 0.1 8.75 0.1H11.25C11.555 0.1 11.8475 0.22116 12.0632 0.436827C12.2788 0.652494 12.4 0.945001 12.4 1.25V1.35H12.5H16.875C17.18 1.35 17.4725 1.47116 17.6882 1.68683C17.9038 1.90249 18.025 2.195 18.025 2.5V3.75C18.025 4.055 17.9038 4.34751 17.6882 4.56317C17.4725 4.77884 17.18 4.9 16.875 4.9H16.25ZM5.1475 4.9H5.12389L5.10278 4.91056L4.95528 4.98431L4.9 5.01195V5.07375V16.25C4.9 16.608 5.04223 16.9514 5.29541 17.2046C5.54858 17.4578 5.89196 17.6 6.25 17.6H13.75C14.108 17.6 14.4514 17.4578 14.7046 17.2046C14.9578 16.9514 15.1 16.608 15.1 16.25V5.07375V5.01195L15.0447 4.98431L14.8972 4.91056L14.8761 4.9H14.8525H5.1475ZM3.025 3.75V3.85H3.125H16.875H16.975V3.75V2.5V2.4H16.875H3.125H3.025V2.5V3.75Z" fill="black" stroke="white" stroke-width="0.2"/>
</svg>
